<?xml version="1.0" encoding="UTF-8"?> <svg id="Lag_1" data-name="Lag 1" xmlns="http://www.w3.org/2000/svg" viewBox="0 0 439 242.49"><defs><style>.cls-1{fill:#101012;}.cls-2{opacity:0.3;}.cls-3{fill:#1b1b1f;}.cls-4{opacity:0.36;}</style></defs><title>naalTegnebræt 1</title><g id="Needle"><g id="_Group_" data-name="&lt;Group&gt;"><circle id="_Ellipse_" data-name="&lt;Ellipse&gt;" class="cls-1" cx="219.96" cy="218.65" r="16.84" transform="translate(-43.25 382.71) rotate(-76.76)"/><path id="_Path_" data-name="&lt;Path&gt;" class="cls-2" d="M220,101.43l8.43,115.85H209.76l8.42-115.85A.89.89,0,0,1,220,101.43Z"/><path id="_Path_2" data-name="&lt;Path&gt;" class="cls-1" d="M220.84,102.8l8.43,115.85H210.65l8.43-115.85A.88.88,0,0,1,220.84,102.8Z"/><path id="_Path_3" data-name="&lt;Path&gt;" class="cls-3" d="M220,228.12a9.47,9.47,0,1,1,9.46-9.47A9.47,9.47,0,0,1,220,228.12Z"/><path id="_Path_4" data-name="&lt;Path&gt;" class="cls-4" d="M228.2,204,220.84,102.8A.85.85,0,0,0,220,102V235.49A16.83,16.83,0,0,0,228.2,204Z"/></g></g></svg>